<?xml version="1.0" standalone="no"?>
<!DOCTYPE svg PUBLIC "-//W3C//DTD SVG 20010904//EN"
 "http://www.w3.org/TR/2001/REC-SVG-20010904/DTD/svg10.dtd">
<svg version="1.0" xmlns="http://www.w3.org/2000/svg"
 width="1024.000000pt" height="1024.000000pt" viewBox="150 150 650 650"
 preserveAspectRatio="xMidYMid meet">
<metadata>
Created by potrace 1.16, written by Peter Selinger 2001-2019
</metadata>
<g transform="translate(0.000000,1024.000000) scale(0.100000,-0.100000)"
fill="#e60000" stroke="none">
<path d="M4005 7903 c-90 -8 -195 -37 -280 -78 -198 -96 -328 -252 -397 -475
l-22 -75 -3 -860 c-2 -853 -2 -860 17 -814 70 171 231 473 331 620 l38 57 3
478 c3 445 4 482 22 524 46 108 108 170 213 211 56 23 70 23 464 29 l405 5 50
41 c124 103 338 239 484 308 l75 34 -680 -1 c-374 0 -698 -2 -720 -4z"/>
<path d="M5900 7899 c-227 -22 -494 -118 -728 -263 -448 -278 -973 -822 -1362
-1412 -251 -381 -418 -740 -482 -1038 -32 -149 -32 -379 1 -493 61 -216 191
-372 396 -473 163 -82 224 -94 465 -94 227 -1 290 8 475 69 438 143 913 522
1217 970 79 116 132 205 124 205 -3 0 -36 -21 -73 -46 -140 -95 -391 -200
-583 -244 -48 -11 -67 -25 -148 -99 -416 -384 -886 -555 -1217 -441 -76 26
-113 50 -168 109 -173 184 -156 469 53 899 219 452 532 878 944 1287 283 281
493 443 721 554 544 266 1005 103 1005 -355 0 -182 -98 -397 -267 -582 l-48
-54 -95 46 c-199 94 -442 142 -680 133 -176 -6 -276 -29 -410 -95 -281 -137
-401 -431 -281 -687 52 -112 144 -194 268 -242 92 -35 250 -42 378 -19 235 44
511 171 759 348 l81 57 48 -47 c104 -101 188 -247 229 -400 16 -60 21 -107 21
-212 0 -159 -19 -246 -84 -380 -58 -119 -178 -238 -299 -298 -148 -73 -313
-102 -574 -102 l-133 0 -64 -52 c-102 -82 -304 -211 -426 -272 -62 -31 -113
-58 -113 -59 0 -1 231 -1 512 1 566 3 635 9 804 63 322 103 552 304 676 592
143 331 129 736 -37 1061 -56 109 -113 190 -203 286 l-69 75 63 69 c229 250
344 520 344 806 0 463 -313 787 -804 830 -122 11 -115 11 -236 -1z m-274
-1680 c72 -10 200 -43 269 -69 l29 -11 -84 -56 c-263 -171 -559 -260 -683
-205 -59 26 -87 70 -87 135 0 77 35 124 129 172 82 41 268 56 427 34z"/>
<path d="M5460 3554 c-99 -21 -235 -92 -303 -159 -122 -119 -177 -242 -185
-413 -9 -189 45 -330 178 -463 128 -130 280 -189 485 -189 205 0 357 59 485
189 87 87 131 165 160 277 59 231 -20 478 -201 630 -59 49 -167 102 -257 125
-90 23 -263 25 -362 3z m310 -249 c97 -33 176 -114 216 -220 22 -58 25 -187 6
-250 -32 -108 -119 -202 -225 -240 -82 -31 -205 -27 -282 8 -81 38 -120 69
-160 130 -149 228 -32 533 225 587 58 12 163 5 220 -15z"/>
<path d="M6910 3550 c-226 -59 -400 -225 -454 -436 -20 -77 -21 -250 -2 -322
48 -179 178 -331 347 -406 186 -82 460 -75 632 16 69 37 184 139 174 155 -3 5
-46 44 -94 85 l-88 75 -48 -42 c-192 -174 -498 -123 -609 103 -31 62 -33 73
-33 172 0 93 3 112 27 162 108 230 422 289 616 114 22 -20 43 -36 47 -36 4 0
48 37 97 82 l90 82 -61 58 c-71 67 -178 122 -278 143 -98 21 -271 18 -363 -5z"/>
<path d="M2630 2950 l0 -600 383 0 c211 0 410 5 445 10 192 32 303 127 318
277 14 128 -36 238 -136 302 l-56 36 51 50 c67 65 89 128 83 229 -10 151 -103
243 -286 281 -51 11 -155 15 -434 15 l-368 0 0 -600z m737 357 c39 -21 63 -63
63 -109 0 -50 -21 -81 -70 -105 -41 -22 -57 -23 -242 -23 l-198 0 0 131 0 130
208 -3 c175 -3 212 -6 239 -21z m40 -478 c51 -24 73 -61 73 -119 0 -56 -22
-94 -67 -116 -33 -17 -67 -19 -265 -22 l-228 -4 0 141 0 141 222 0 c205 0 225
-2 265 -21z"/>
<path d="M3980 2950 l0 -600 460 0 461 0 -3 117 -3 116 -312 -2 -313 -2 0 485
0 486 -145 0 -145 0 0 -600z"/>
</g>
</svg>
